<?xml version="1.0" encoding="UTF-8"?><svg id="Ebene_1" xmlns="http://www.w3.org/2000/svg" viewBox="0 0 254.98 102.84"><defs><style>.cls-1{fill:#fff;}</style></defs><path class="cls-1" d="m123.17,22.1c2.04,0,3.7-1.66,3.7-3.7s-1.66-3.7-3.7-3.7-3.7,1.66-3.7,3.7,1.66,3.7,3.7,3.7"/><path class="cls-1" d="m253.7,35.84c-.29-.03-.73-.03-1.07.05-.41,0-24.08,0-24.08,0-.17,0-.35,0-.5,0,.14-.33.31-.72.51-1.17.69-1.59,1.65-3.77,2.12-5.38.81-2.76-1.95-4.2-2.99-4.75l-.17-.09c-2.03-1.08-3.25-1.99-4.14-2.65-1.09-.81-1.81-1.34-2.91-1.44-.83-.1-1.7.43-2.33,1.42-.71,1.12-1.16,2.98-.39,4.94-2.9,4.58-7.16,7.95-11.17,8.83-.54.12-1.11.18-1.66.18-.77,0-2.03-.12-2.9-.83,7.81-2.63,9.2-6.46,9.44-7.61.36-1.71.08-3.35-.8-4.64-.92-1.36-2.47-2.25-4.47-2.59-2.7-.45-4.99,0-7.09,1.37-2.74,1.8-5.26,5.63-4.34,11.09-1.97.72-4.89,1.55-7.73,2.19.34-1.03.85-2.74,1.71-5.59l.15-.49c.81-2.67.05-4.48-.73-5.52-1.18-1.59-3.26-2.53-5.58-2.53-1.51,0-3.03.39-4.39,1.14-1.26.69-1.65,1.03-2.59,1.84-.39.34-.89.77-1.6,1.36-1.72,1.42-2.06,1.76-2.36,2.06-.23.23-.43.43-1.43,1.25-5.64,4.59-8.49,6.77-9.44,6.77-.06,0-.11,0-.17-.03-.51-.41-1.73-2.66-2.63-4.32-1.45-2.68-2.96-5.46-4.18-6.42-.39-.31-.86-.46-1.41-.46-2.37,0-5.82,3.03-8.58,5.47-.85.75-1.88,1.66-2.36,1.96,0-.45.29-1.48.49-2.19.18-.62.36-1.26.51-1.93.46-2.08.37-3.48-.28-4.28-.84-1.05-2.46-.93-4.56.43-4.65,2.97-8.07,5.43-10.57,7.23-2.64,1.89-4.55,3.26-5.23,3.26h-.09s-.07-.01-.08-.01c-.14-.43.51-2.02.9-2.99.86-2.13,1.75-4.32.57-5.42-.64-.59-1.45-.88-2.47-.88-1.38,0-2.93.53-4.74,1.13-.57.19-1.17.39-1.78.58-.49.15-1.03.35-1.59.55-1.59.57-3.39,1.21-4.88,1.21s-2.27-.56-2.78-1.83l-.07-.13c-.21-.32-.63-.71-1.42-.71-1.38,0-3.27,1.28-4.02,1.83-.25.19-1.03.76-.98,1.61.05.93.96,1.46,1.83,1.97.25.15.62.36.86.55-1.11,1.53-4.01,4.24-6.4,4.24-2.1-.03-2.89-1.63-3.17-2.51.71-.65,1.46-1.32,2.23-2.01,5.45-4.85,11.62-10.34,10.94-16.6-.36-2.74-2.48-4.65-5.16-4.65-.54,0-1.08.08-1.53.22-6.54,1.3-12.78,12.28-12.32,21.53-2.81,2.07-6.84,4.19-10.06,4.19-1.95,0-3.32-.78-4.18-2.39,1.01-.88,1.85-1.53,2.66-2.17,1.68-1.31,3.13-2.44,5.36-4.98,1.37-1.47,5.83-6.63,5.65-11.29-.06-1.61-.67-2.97-1.86-4.06-.55-.51-1.26-.93-1.98-1.14-.89-.27-1.83-.23-2.74-.03-.55.12-1.09.29-1.62.48-1.29.45-2.39,1.28-3.42,2.16-1.14.98-2.15,2.16-3.03,3.38-.54.75-1.04,1.54-1.5,2.34-2.54,4.45-3.89,9.62-3.71,14.26-1.66,1.11-3.41,2.08-6.22,3.13-1.31.49-2.85.75-4.45.75s-3.08-.26-4.18-.71c5.17-2.18,7.64-5.46,8.19-7.74.28-1.18.26-3.12-.75-4.74-.82-1.32-2.12-2.19-3.87-2.59-2.08-.47-5.11.06-7.01,1.17-2.56,1.42-6.42,5.5-5.18,11.99-3.23.96-5.89,1.65-12.11,1.81,1.34-4.35,6.84-22.26,7.56-24.52.11-.36.22-.72.33-1.09.56-1.87,1.19-3.98,2.12-3.98.43.04.7.13.8.27.22.31.14,1.18-.24,2.59-.76,3.01-1.19,4.52-1.83,6.82l-.65,2.3-.02.09c-.08.55.05,1.05.38,1.44.41.47,1.08.73,1.89.73,1.15,0,2.6-.57,3.08-1.87.58-2.13,1.07-3.85,1.47-5.26,1.3-4.59,1.69-5.97,1.53-7.5-.3-2.95-2.1-4.75-5.19-5.21-.37-.05-.75-.08-1.13-.08-1.46,0-2.56.42-3.09.66-1.85.87-2.6,2.24-3.41,4.65-.97,3.09-4.39,14.44-6.88,22.74-.88,2.93-1.65,5.49-2.16,7.18-3.06.01-22-.04-22.01-.04-1.48.36-2.25,1.85-2.18,2.96.08,1.16.92,2.02,2.1,2.15h20.58s-4.51,14.93-4.51,14.93c-.11.45-.02.9.27,1.27.42.55,1.24.88,2.17.88,1.28,0,2.36-.63,2.83-1.63h-.02c.16-.36.36-1,.73-2.18.4-1.27.93-3,1.49-4.81.91-2.97,2.04-6.67,2.56-8.43,6.21-.08,11.66-.92,16.22-2.5,1.53,1.15,4.16,2.48,8.33,2.81.33.03.7.04,1.11.04,1.16,0,5.24-.14,8.98-1.93.13-.06,2.83-1.37,4.43-2.29,2.33,2.64,5.11,3.98,8.28,3.98,4.14,0,8.3-2.26,11.58-4.37,1.96,2.84,4.5,4.34,7.36,4.34,3.71,0,7.78-2.6,11.77-7.53.61.11,1.21.16,1.84.16,2.38,0,4.54-.78,6.82-1.6,1.74-.63,2.06-.38,2.07-.38.22.31-.38,1.93-.7,2.8-.68,1.84-1.38,3.74-.72,5.09.28.56.76.95,1.43,1.16.61.25,1.27.38,1.96.38,3.25,0,6.94-2.7,10.84-5.55,1.14-.84,2.33-1.71,3.49-2.49.3-.2.61-.42.9-.63.59-.41,1.42-1.01,1.86-1.18-.03.12-.07.27-.11.42-.06.23-.14.5-.22.85-1.03,4.3-1.23,6.34-1.22,6.35-.11.57-.03,1.04.25,1.4.44.56,1.19.61,1.73.63,2.03.11,3.19-.85,7.48-4.39,1.21-1,2.68-2.21,4.49-3.67.4-.32.82-.64,1.25-.93.19-.13.43-.29.66-.33.29-.06.74.03.97.22.2.18.36.42.53.62.49.59.88,1.28,1.26,1.94.22.37.42.75.64,1.12,1.13,2.01,2.3,4.09,3.63,4.97.74.49,1.55.74,2.41.74,2.5,0,5.26-2.03,9.08-4.85.25-.18.5-.37.76-.56.14.67.41,1.56.9,2.45,1.15,2.35,3.5,3.65,6.62,3.65.78,0,1.59-.09,2.38-.25-.48,1.59-.88,2.97-1.16,3.95-.2.7-.35,1.22-.44,1.5-.14.44-.27.88-.39,1.33-.51,1.76-1.08,3.75-1.93,3.75-.03,0-.06,0-.11,0-.67-.06-.86-.23-.94-.35-.18-.25-.29-.88.15-2.51.31-1.22.46-1.7.63-2.25.12-.39.26-.82.46-1.55l.02-.09c.11-.71-.15-1.19-.39-1.46-.4-.46-1.05-.72-1.83-.72-1.11,0-2.52.57-3,1.86-.22.81-.42,1.51-.6,2.13-.74,2.56-1.07,3.74-.91,5.34.14,1.41.96,4.76,5.4,5.29.33.04.65.06.97.06,1.6,0,2.63-.53,3.26-.93,1.69-1.07,2.37-2.03,3.19-4.44.26-.83.66-2.23,1.17-4.01.64-2.23,1.42-4.97,2.3-7.9,2.89-.59,8.39-2.14,11.66-3.13,1.93,1.94,3.61,2.63,4.75,2.99,1.13.3,2.28.46,3.43.46,6.16,0,12.38-4.36,17.55-12.29,1.36.16,2.23.51,2.51,1.03.47.84-.38,2.53-1.2,4.17-.43.86-.88,1.75-1.22,2.66-.5,1.3-.5,2.3,0,3.05.56.85,1.67,1.28,3.54,1.37,0,0,2.23,0,4.08,0h7.77c5.13.02,10.48.03,12.35.03h.71c.78,0,1.42-.2,2.04-.67.56-.43,1.11-.93,1.41-1.58.13-.28.25-.65.24-.96-.03-.67-.49-1.15-1.28-1.29m-182.99-7.25c.2-4.45,3.91-12.2,7.21-13.15.33-.12.73-.2,1.07-.2.24,0,.65.04.82.28.1.15.28.65-.27,1.95-1.2,2.87-5.07,7.71-8.83,11.12m-23.42,3.15c-.44-1.33-.21-2.86.67-4.29.93-1.51,2.41-2.57,3.6-2.57.4,0,.75.12,1.03.34.77.65.77,1.23.71,1.61-.28,1.57-2.81,3.62-6,4.92m43.58-4.12c.67-4.12,2.72-9.17,6.84-12.09.21-.17.67-.35,1.17-.35.22,0,.63.04.8.3.21.32.13.97-.21,1.8-1.06,2.53-4.91,6.77-8.6,10.33m92.43,1.26l-2.11,6.85c-.41.12-1.14.32-1.98.47-.4.07-.79.11-1.15.11-1.88,0-2.98-.91-3.24-1.8-.49-1.71.41-3.7,2.68-5.91,1.82-1.77,3.64-2.83,4.88-2.83.41,0,.7.12.89.37.37.49.38,1.5.03,2.76m17.94-2.43c.95-1.19,2.23-1.96,3.28-1.96.35,0,.66.08.91.24,1,.68.89,1.33.85,1.54-.27,1.61-3.08,3.61-6.43,4.65-.15-1.55.34-3.15,1.39-4.47"/><path class="cls-1" d="m109.47,67.95c-.22-.28-.39-.51-.67-.73-.61-.48-1.26-.53-1.54-.53-.92,0-1.48.47-1.7.73-.42.48-.48,1.05-.48,1.28,0,.39.13,1.11.95,1.63.5.32,1.07.46,1.6.74.5.27.88.64.88,1.24,0,.51-.3.99-.77,1.19-.07.03-.29.11-.54.11-.53,0-1-.3-1.28-.71-.1-.15-.21-.36-.35-.73l-1.03.23c.21.64.4,1.15.92,1.61.65.56,1.39.62,1.69.62,1.06,0,1.94-.61,2.32-1.59.14-.39.15-.66.15-.84,0-.37-.09-1.07-.82-1.66-.19-.15-.37-.25-.59-.37l-1.4-.71c-.11-.05-.62-.27-.62-.8,0-.17.09-.66.57-.88.15-.07.29-.09.46-.1.3,0,.67.08,1.07.54.08.1.15.19.22.29l.96-.55Zm1.86-1.1v7.64h4.14v-1.05h-3.05v-2.63h3.07v-1.03h-3.06v-1.86h3.08v-1.07h-4.19Zm5.99,7.62h1.13v-7.64h-1.13v7.64Zm2.21-7.62v1.07h1.81v6.56h1.08v-6.56h1.82v-1.07h-4.72Zm8.81,0l-.56,1.04h1.31v6.6h1.09v-7.64h-1.84Zm5.62,7.91l2.9-4.14c.24-.48.43-.87.43-1.39,0-.41-.15-1.36-1.05-2.01-.46-.33-.96-.5-1.52-.5-1.02,0-1.95.57-2.38,1.54-.18.42-.21.81-.21.99,0,.39.11,1.35,1.02,1.97.59.4,1.12.38,1.81.36l-1.83,2.61.82.57Zm-.74-5.65c.09-.76.76-1.31,1.5-1.31.59,0,1.14.35,1.38.89.12.26.13.48.13.6,0,.84-.72,1.51-1.53,1.51-.63,0-1.18-.41-1.4-1.01-.04-.12-.12-.36-.08-.67m9.49-2.77l-4.65,7.04h3.56v1.13h1.05v-1.14h.88v-.89h-.84v-6.14Zm-1.03,3.2l-.05,2.96h-1.86l1.91-2.96Zm6.92-1.69l-3.85,6.23.85.55,4.84-7.79h-5.6v1.01h3.77Z"/><rect class="cls-1" x="159.98" y="69.47" width="83.29" height="2.36"/><rect class="cls-1" x="11.71" y="69.47" width="83.29" height="2.36"/><path class="cls-1" d="m235.32,85.96c1.64,0,2.75.23,3.33.69.58.46.87,1.27.87,2.43,0,1.07-.28,1.82-.85,2.25s-1.68.65-3.35.65h-1.63v-6.02h1.63Zm-1.63,16.18v-8.58h.31l6.56,8.58h2.71l-6.87-8.58h.38c1.59,0,2.79-.38,3.62-1.15s1.24-1.89,1.24-3.36c0-.85-.15-1.63-.44-2.33-.29-.7-.71-1.26-1.24-1.68-.43-.33-.92-.56-1.48-.69-.56-.14-1.44-.2-2.65-.2h-4.23v17.99h2.09Zm-6.39,0v-1.99h-7.35v-6.89h7.35v-1.99h-7.35v-5.16h7.35v-1.95h-9.49v17.99h9.49Zm-17.61,0v-15.95h5.06v-2.04h-12.31v2.04h5.09v15.95h2.16Zm-13.43,0v-15.95h5.06v-2.04h-12.31v2.04h5.09v15.95h2.16Zm-22.81,0h2.32l2.33-5.52h7.03l2.34,5.52h2.32l-8.18-18.7-8.16,18.7Zm11.02-7.35h-5.73l2.86-6.62,2.86,6.62Zm-14.85,7.35v-15.95h5.06v-2.04h-12.31v2.04h5.09v15.95h2.16Zm-14.94-11.12c-.83-.36-1.44-.77-1.83-1.24-.39-.47-.59-1.02-.59-1.66,0-.76.26-1.39.77-1.88.51-.49,1.17-.74,1.97-.74.63,0,1.2.17,1.7.51.5.34.95.86,1.35,1.56l1.77-1.13c-.44-.89-1.06-1.57-1.85-2.03-.79-.46-1.73-.69-2.81-.69-1.48,0-2.69.42-3.64,1.25-.95.84-1.42,1.89-1.42,3.17,0,1.1.29,2.04.88,2.83.59.79,1.48,1.43,2.67,1.93l2.19.93c.93.41,1.63.91,2.09,1.5.46.59.69,1.29.69,2.1,0,.99-.33,1.8-1,2.41-.66.62-1.53.93-2.6.93-.91,0-1.67-.28-2.27-.84-.6-.56-1.03-1.39-1.3-2.48l-1.94.96c.34,1.34.98,2.37,1.94,3.09.96.72,2.14,1.09,3.56,1.09,1.74,0,3.13-.51,4.18-1.52,1.05-1.01,1.58-2.35,1.58-4,0-1.13-.3-2.11-.89-2.94-.59-.83-1.48-1.49-2.65-1.99l-2.57-1.13Zm-13.62,0c-.83-.36-1.44-.77-1.83-1.24-.39-.47-.59-1.02-.59-1.66,0-.76.26-1.39.77-1.88.51-.49,1.17-.74,1.97-.74.63,0,1.2.17,1.7.51.5.34.95.86,1.35,1.56l1.77-1.13c-.44-.89-1.06-1.57-1.85-2.03-.79-.46-1.73-.69-2.81-.69-1.47,0-2.69.42-3.64,1.25-.95.84-1.43,1.89-1.43,3.17,0,1.1.29,2.04.88,2.83.59.79,1.48,1.43,2.67,1.93l2.19.93c.93.41,1.63.91,2.1,1.5.46.59.69,1.29.69,2.1,0,.99-.33,1.8-.99,2.41-.66.62-1.53.93-2.6.93-.91,0-1.67-.28-2.27-.84-.6-.56-1.03-1.39-1.3-2.48l-1.94.96c.34,1.34.98,2.37,1.94,3.09.96.72,2.15,1.09,3.56,1.09,1.74,0,3.13-.51,4.18-1.52,1.05-1.01,1.58-2.35,1.58-4,0-1.13-.3-2.11-.89-2.94-.59-.83-1.48-1.49-2.65-1.99l-2.57-1.13Zm-22.85,4.32c0,2.43.58,4.25,1.74,5.46,1.16,1.21,2.9,1.81,5.23,1.81s4.08-.6,5.24-1.81c1.16-1.21,1.74-3.03,1.74-5.46v-11.19h-2.17v11.19c0,1.82-.39,3.15-1.16,4-.77.85-1.99,1.28-3.64,1.28s-2.87-.43-3.64-1.28c-.77-.85-1.16-2.19-1.16-4v-11.19h-2.16v11.19Zm-18.36,6.79h2.32l2.33-5.52h7.03l2.33,5.52h2.32l-8.18-18.7-8.16,18.7Zm11.02-7.35h-5.72l2.86-6.62,2.86,6.62Zm-26.69,7.35v-13.51l13.16,14.22v-18.69h-2.04v13.66l-13.16-14.38v18.7h2.04Zm-6.34,0v-1.99h-7.35v-6.89h7.35v-1.99h-7.35v-5.16h7.35v-1.95h-9.49v17.99h9.49Zm-17.3-12.22l2.28,12.22h2.09l-3.65-18.7-6.29,14.88-6.29-14.88-3.65,18.7h2.09l2.26-12.22,5.59,12.93,5.57-12.93Zm-32.82,12.22h2.32l2.33-5.52h7.03l2.33,5.52h2.32l-8.18-18.7-8.16,18.7Zm11.02-7.35h-5.73l2.86-6.62,2.86,6.62Zm-23.58,7.35h.77c2.12,0,3.68-.13,4.69-.39,1-.26,1.9-.69,2.69-1.3,1.04-.79,1.83-1.81,2.35-3.04s.79-2.65.79-4.26-.27-3.04-.8-4.28c-.53-1.24-1.31-2.25-2.35-3.05-.79-.61-1.7-1.04-2.75-1.3-1.04-.26-2.84-.39-5.4-.39h-3.45v17.99h3.45Zm-1.29-16.01h1.36c2.17,0,3.69.1,4.56.3.87.2,1.59.54,2.16,1.01.75.62,1.31,1.41,1.69,2.36.38.95.57,2.06.57,3.32s-.19,2.36-.58,3.34c-.39.97-.95,1.76-1.68,2.38-.57.47-1.27.8-2.13.99-.85.19-2.38.29-4.59.29h-1.36v-13.99Z"/></svg>